<svg width="20" height="20" viewBox="0 0 20 20" fill="none" xmlns="http://www.w3.org/2000/svg">
<path d="M14.3688 9.63553C14.3899 11.9055 16.3602 12.6609 16.382 12.6705C16.3653 12.7238 16.0672 13.747 15.344 14.8039C14.7187 15.7177 14.0699 16.6281 13.0477 16.647C12.0434 16.6655 11.7204 16.0514 10.5721 16.0514C9.42418 16.0514 9.06536 16.6281 8.1146 16.6655C7.12796 16.7029 6.37661 15.6774 5.74625 14.767C4.45813 12.9047 3.47373 9.50459 4.79552 7.20946C5.45216 6.06969 6.62562 5.34794 7.89931 5.32944C8.86817 5.31095 9.78263 5.98125 10.3749 5.98125C10.9669 5.98125 12.0781 5.17516 13.2464 5.29355C13.7355 5.3139 15.1083 5.4911 15.9899 6.78145C15.9188 6.82549 14.3518 7.73775 14.3688 9.63553V9.63553ZM12.4812 4.06148C13.005 3.42742 13.3576 2.54475 13.2614 1.6665C12.5064 1.69685 11.5933 2.16964 11.0518 2.80335C10.5664 3.36453 10.1414 4.26273 10.256 5.1236C11.0976 5.18871 11.9574 4.69594 12.4812 4.06148Z" fill="black"/>
</svg>
