<svg width="458" height="33" viewBox="0 0 458 33" fill="none" xmlns="http://www.w3.org/2000/svg">
<rect width="4" height="4" transform="translate(0.5 14.5)" fill="#666D80"/>
<rect width="4" height="4" transform="translate(8.5 14.5)" fill="#666D80"/>
<rect width="4" height="4" transform="translate(16.5 14.5)" fill="#666D80"/>
<rect width="4" height="20" transform="translate(24.5 6.5)" fill="#666D80"/>
<rect width="4" height="32" transform="translate(32.5 0.5)" fill="#666D80"/>
<rect width="4" height="20" transform="translate(40.5 6.5)" fill="#666D80"/>
<rect width="4" height="20" transform="translate(48.5 6.5)" fill="#666D80"/>
<rect width="4" height="32" transform="translate(56.5 0.5)" fill="#666D80"/>
<rect width="3" height="20" transform="translate(64.5 6.5)" fill="#666D80"/>
<rect width="3" height="20" transform="translate(71.5 6.5)" fill="#666D80"/>
<rect width="4" height="32" transform="translate(78.5 0.5)" fill="#666D80"/>
<rect width="4" height="20" transform="translate(86.5 6.5)" fill="#666D80"/>
<rect width="3" height="20" transform="translate(94.5 6.5)" fill="#666D80"/>
<rect width="4" height="20" transform="translate(101.5 6.5)" fill="#666D80"/>
<rect width="4" height="20" transform="translate(109.5 6.5)" fill="#666D80"/>
<rect width="4" height="28" transform="translate(117.5 2.5)" fill="#666D80"/>
<rect width="4" height="28" transform="translate(125.5 2.5)" fill="#666D80"/>
<rect width="4" height="28" transform="translate(133.5 2.5)" fill="#666D80"/>
<rect width="4" height="32" transform="translate(141.5 0.5)" fill="#666D80"/>
<rect width="4" height="20" transform="translate(149.5 6.5)" fill="#666D80"/>
<rect width="4" height="28" transform="translate(157.5 2.5)" fill="#666D80"/>
<rect width="4" height="20" transform="translate(165.5 6.5)" fill="#666D80"/>
<rect width="4" height="32" transform="translate(173.5 0.5)" fill="#666D80"/>
<rect width="4" height="4" transform="translate(181.5 14.5)" fill="#666D80"/>
<rect width="4" height="32" transform="translate(189.5 0.5)" fill="#666D80"/>
<rect width="4" height="4" transform="translate(197.5 14.5)" fill="#666D80"/>
<rect width="4" height="4" transform="translate(205.5 14.5)" fill="#666D80"/>
<rect width="4" height="28" transform="translate(213.5 2.5)" fill="#666D80"/>
<rect width="4" height="4" transform="translate(221.5 14.5)" fill="#666D80"/>
<rect width="4" height="20" transform="translate(229.5 6.5)" fill="#666D80"/>
<rect width="4" height="20" transform="translate(237.5 6.5)" fill="#666D80"/>
<rect width="4" height="4" transform="translate(245.5 14.5)" fill="#666D80"/>
<rect width="4" height="28" transform="translate(253.5 2.5)" fill="#666D80"/>
<rect width="4" height="4" transform="translate(261.5 14.5)" fill="#666D80"/>
<rect width="4" height="20" transform="translate(269.5 6.5)" fill="#666D80"/>
<rect width="4" height="20" transform="translate(277.5 6.5)" fill="#666D80"/>
<rect width="4" height="10" transform="translate(285.5 11.5)" fill="#666D80"/>
<rect width="4" height="28" transform="translate(293.5 2.5)" fill="#666D80"/>
<rect width="4" height="10" transform="translate(301.5 11.5)" fill="#666D80"/>
<rect width="4" height="10" transform="translate(309.5 11.5)" fill="#666D80"/>
<rect width="4" height="20" transform="translate(317.5 6.5)" fill="#666D80"/>
<rect width="4" height="32" transform="translate(325.5 0.5)" fill="#666D80"/>
<rect width="4" height="20" transform="translate(333.5 6.5)" fill="#666D80"/>
<rect width="4" height="10" transform="translate(341.5 11.5)" fill="#666D80"/>
<rect width="4" height="20" transform="translate(349.5 6.5)" fill="#666D80"/>
<rect width="4" height="10" transform="translate(357.5 11.5)" fill="#666D80"/>
<rect width="4" height="20" transform="translate(365.5 6.5)" fill="#666D80"/>
<rect width="4" height="32" transform="translate(373.5 0.5)" fill="#666D80"/>
<rect width="4" height="10" transform="translate(381.5 11.5)" fill="#666D80"/>
<rect width="4" height="10" transform="translate(389.5 11.5)" fill="#666D80"/>
<rect width="4" height="20" transform="translate(397.5 6.5)" fill="#666D80"/>
<rect width="4" height="32" transform="translate(405.5 0.5)" fill="#666D80"/>
<rect width="4" height="10" transform="translate(413.5 11.5)" fill="#666D80"/>
<rect width="4" height="4" transform="translate(421.5 14.5)" fill="#666D80"/>
<rect width="4" height="10" transform="translate(429.5 11.5)" fill="#666D80"/>
<rect width="4" height="10" transform="translate(437.5 11.5)" fill="#666D80"/>
<rect width="4" height="20" transform="translate(445.5 6.5)" fill="#666D80"/>
<rect width="4" height="4" transform="translate(453.5 14.5)" fill="#666D80"/>
</svg>
