<svg width="16" height="16" viewBox="0 0 16 16" fill="none" xmlns="http://www.w3.org/2000/svg">
<mask id="mask0_115_27274" style="mask-type:alpha" maskUnits="userSpaceOnUse" x="0" y="0" width="16" height="16">
<rect width="16" height="16" fill="#D9D9D9"/>
</mask>
<g mask="url(#mask0_115_27274)">
<path d="M4.00002 14.6668C3.63335 14.6668 3.31946 14.5363 3.05835 14.2752C2.79724 14.0141 2.66669 13.7002 2.66669 13.3335V2.66683C2.66669 2.30016 2.79724 1.98627 3.05835 1.72516C3.31946 1.46405 3.63335 1.3335 4.00002 1.3335H12C12.3667 1.3335 12.6806 1.46405 12.9417 1.72516C13.2028 1.98627 13.3334 2.30016 13.3334 2.66683V13.3335C13.3334 13.7002 13.2028 14.0141 12.9417 14.2752C12.6806 14.5363 12.3667 14.6668 12 14.6668H4.00002ZM4.00002 13.3335H12V2.66683H10.6667V7.3335L9.00002 6.3335L7.33335 7.3335V2.66683H4.00002V13.3335Z" fill="#0385FF"/>
</g>
</svg>
