<svg width="20" height="20" viewBox="0 0 20 20" fill="none" xmlns="http://www.w3.org/2000/svg">
<path d="M9.99984 18.3337C14.6022 18.3337 18.3332 14.6027 18.3332 10.0003C18.3332 5.39795 14.6022 1.66699 9.99984 1.66699C5.39746 1.66699 1.6665 5.39795 1.6665 10.0003C1.6665 14.6027 5.39746 18.3337 9.99984 18.3337Z" fill="#8A44F4"/>
<path d="M7.49984 10.0003L9.1665 11.667L12.4998 8.33366" fill="#8A44F4"/>
<path d="M7.49984 10.0003L9.1665 11.667L12.4998 8.33366M18.3332 10.0003C18.3332 14.6027 14.6022 18.3337 9.99984 18.3337C5.39746 18.3337 1.6665 14.6027 1.6665 10.0003C1.6665 5.39795 5.39746 1.66699 9.99984 1.66699C14.6022 1.66699 18.3332 5.39795 18.3332 10.0003Z" stroke="white" stroke-width="1.5" stroke-linecap="round" stroke-linejoin="round"/>
</svg>
