<svg width="16" height="17" viewBox="0 0 16 17" fill="none" xmlns="http://www.w3.org/2000/svg">
<path d="M8.00311 15.1685C4.3212 15.1685 1.33643 12.1838 1.33643 8.50184C1.33643 4.81997 4.3212 1.83521 8.00311 1.83521C11.685 1.83521 14.6698 4.81997 14.6698 8.50184C14.6698 12.1838 11.685 15.1685 8.00311 15.1685ZM8.00311 13.8352C10.9486 13.8352 13.3364 11.4474 13.3364 8.50184C13.3364 5.55635 10.9486 3.16854 8.00311 3.16854C5.05757 3.16854 2.66976 5.55635 2.66976 8.50184C2.66976 11.4474 5.05757 13.8352 8.00311 13.8352ZM5.66976 9.83517H9.33644C9.5205 9.83517 9.66977 9.68597 9.66977 9.50184C9.66977 9.31777 9.5205 9.1685 9.33644 9.1685H6.66977C5.74929 9.1685 5.00309 8.42237 5.00309 7.50184C5.00309 6.58139 5.74929 5.83521 6.66977 5.83521H7.33644V4.50187H8.66977V5.83521H10.3364V7.1685H6.66977C6.48567 7.1685 6.33643 7.31777 6.33643 7.50184C6.33643 7.68597 6.48567 7.83517 6.66977 7.83517H9.33644C10.2569 7.83517 11.0031 8.58137 11.0031 9.50184C11.0031 10.4224 10.2569 11.1685 9.33644 11.1685H8.66977V12.5018H7.33644V11.1685H5.66976V9.83517Z" fill="#3AC348"/>
</svg>
