<svg width="80" height="80" viewBox="0 0 80 80" fill="none" xmlns="http://www.w3.org/2000/svg">
<path d="M59.5228 37.7881H15.8758L4.96405 59.6115H70.4345L59.5228 37.7881Z" stroke="#1A1B25" stroke-width="1.5625" stroke-miterlimit="10" stroke-linecap="round" stroke-linejoin="round"/>
<path d="M4.96405 59.6123H70.4345V77.344H4.96405V59.6123Z" stroke="#1A1B25" stroke-width="1.5625" stroke-miterlimit="10" stroke-linecap="round" stroke-linejoin="round"/>
<path d="M54.4699 68.4778C54.4699 70.1936 53.0799 71.5836 51.3641 71.5836C50.3483 71.5836 49.4467 71.0964 48.8796 70.3413C48.4905 69.8224 48.2583 69.1764 48.2583 68.4778C48.2583 67.7794 48.4903 67.1335 48.8796 66.6143C49.4469 65.8593 50.3483 65.3721 51.3641 65.3721C53.08 65.3721 54.4699 66.7621 54.4699 68.4778Z" stroke="#1A1B25" stroke-width="1.5625" stroke-miterlimit="10" stroke-linecap="round" stroke-linejoin="round"/>
<path d="M27.1392 68.4778C27.1392 69.1764 26.9075 69.8222 26.5181 70.3413C25.9522 71.0964 25.0495 71.5836 24.0336 71.5836C22.319 71.5836 20.9278 70.1936 20.9278 68.4778C20.9278 66.7622 22.319 65.3721 24.0336 65.3721C25.0495 65.3721 25.9522 65.8593 26.5181 66.6143C26.9075 67.1335 27.1392 67.7794 27.1392 68.4778Z" stroke="#1A1B25" stroke-width="1.5625" stroke-miterlimit="10" stroke-linecap="round" stroke-linejoin="round"/>
<path d="M48.2584 68.4779C48.2584 69.1764 48.4905 69.8222 48.8797 70.3413H26.5181C26.9073 69.8224 27.1392 69.1764 27.1392 68.4779C27.1392 67.7794 26.9075 67.1335 26.5181 66.6143H48.8795C48.4905 67.1335 48.2584 67.7794 48.2584 68.4779Z" stroke="#1A1B25" stroke-width="1.5625" stroke-miterlimit="10" stroke-linecap="round" stroke-linejoin="round"/>
<path d="M40.1766 37.7881H15.8758V51.2548H59.3633V37.7881H55.7744" stroke="#1A1B25" stroke-width="1.5625" stroke-miterlimit="10" stroke-linecap="round" stroke-linejoin="round"/>
<path d="M59.2322 51.2549H37.5539H15.8758L13.1219 59.6116H37.5539H61.9859L59.2322 51.2549Z" stroke="#1A1B25" stroke-width="1.5625" stroke-miterlimit="10" stroke-linecap="round" stroke-linejoin="round"/>
<path d="M13.1005 33.3101L11.3519 29.4707" stroke="#1A1B25" stroke-width="1.5625" stroke-miterlimit="10" stroke-linecap="round" stroke-linejoin="round"/>
<path d="M15.66 32.1435L16.7054 29.3496" stroke="#1A1B25" stroke-width="1.5625" stroke-miterlimit="10" stroke-linecap="round" stroke-linejoin="round"/>
<path d="M10.5409 34.4752L7.74701 33.4297" stroke="#1A1B25" stroke-width="1.5625" stroke-miterlimit="10" stroke-linecap="round" stroke-linejoin="round"/>
<path d="M25.495 47.9386C25.4825 47.9386 25.4698 47.9383 25.4572 47.9377C24.8792 47.9102 24.3159 47.8377 23.783 47.7225C23.3612 47.6314 23.0931 47.2156 23.1844 46.7939C23.2756 46.3722 23.6912 46.1042 24.113 46.1955C24.5622 46.2925 25.0394 46.3536 25.5314 46.377C25.9623 46.3975 26.2952 46.7636 26.2745 47.1945C26.2548 47.6128 25.9094 47.9386 25.495 47.9386ZM28.6003 47.685C28.2342 47.685 27.9073 47.4264 27.8345 47.0536C27.7516 46.6302 28.0277 46.2197 28.4511 46.1369C28.9209 46.045 29.4097 45.9264 29.9034 45.7847C30.3183 45.6652 30.7509 45.9052 30.87 46.32C30.9891 46.7347 30.7494 47.1675 30.3347 47.2866C29.7977 47.4406 29.265 47.5698 28.7512 47.6705C28.7006 47.6802 28.6502 47.685 28.6003 47.685ZM21.1055 46.4997C20.9475 46.4997 20.788 46.4519 20.65 46.3527C20.1811 46.0155 19.7484 45.6252 19.3642 45.1927C19.0777 44.8702 19.1069 44.3763 19.4294 44.0895C19.7519 43.803 20.2458 43.8323 20.5323 44.1547C20.8403 44.5014 21.1867 44.8141 21.5623 45.0842C21.9127 45.3361 21.9923 45.8242 21.7405 46.1747C21.5878 46.3867 21.3484 46.4997 21.1055 46.4997ZM18.6566 42.6814C18.2677 42.6814 17.9308 42.3912 17.8822 41.9953C17.8144 41.4439 17.7659 40.9022 17.7384 40.3855C17.7155 39.9545 18.0461 39.5867 18.477 39.5637C18.9048 39.5389 19.2758 39.8714 19.2987 40.3022C19.3245 40.7831 19.3697 41.2886 19.433 41.8045C19.4856 42.2328 19.1812 42.6227 18.753 42.6753C18.7206 42.6794 18.6883 42.6814 18.6566 42.6814ZM18.6383 38.0092C18.6003 38.0092 18.5619 38.0064 18.5231 38.0008C18.0962 37.9378 17.8014 37.5406 17.8644 37.1138C17.9491 36.5405 18.0703 35.9906 18.2248 35.4794C18.3495 35.0664 18.7858 34.8323 19.1986 34.9575C19.6117 35.0823 19.8453 35.5183 19.7205 35.9312C19.588 36.3695 19.4836 36.8441 19.4102 37.342C19.3528 37.7302 19.0192 38.0092 18.6383 38.0092ZM48.7077 36.325C48.6856 36.325 48.6636 36.3241 48.6412 36.3222C48.1381 36.2798 47.5947 36.2092 47.0259 36.1122C46.6006 36.0395 46.3147 35.6359 46.3873 35.2106C46.46 34.7853 46.8625 34.4987 47.2891 34.572C47.8141 34.6617 48.3131 34.7267 48.7722 34.7653C49.2022 34.8014 49.5214 35.1792 49.4851 35.6092C49.4509 36.0167 49.1095 36.325 48.7077 36.325ZM51.8106 36.1392C51.463 36.1392 51.1459 35.9055 51.0548 35.5533C50.9469 35.1356 51.198 34.7094 51.6156 34.6014C52.0702 34.4839 52.4805 34.313 52.8353 34.0934C53.2019 33.8664 53.6836 33.9795 53.9108 34.3464C54.138 34.7133 54.0247 35.1948 53.6578 35.4219C53.1694 35.7244 52.6139 35.9573 52.007 36.1142C51.9412 36.1311 51.8755 36.1392 51.8106 36.1392ZM44.1105 35.432C44.0428 35.432 43.9742 35.4231 43.9056 35.4047C43.4294 35.2756 42.9317 35.1336 42.3837 34.9702C41.9703 34.8469 41.7352 34.4117 41.8583 33.9983C41.9816 33.5848 42.4161 33.3494 42.8303 33.4728C43.3655 33.6323 43.8509 33.7709 44.3144 33.8964C44.7308 34.0092 44.9769 34.4383 44.8642 34.8548C44.7697 35.2028 44.4545 35.432 44.1105 35.432ZM39.6252 34.0687C39.5456 34.0687 39.4648 34.0566 39.3852 34.0308L37.898 33.5502C37.4873 33.4177 37.2617 32.9773 37.3942 32.5669C37.5267 32.1562 37.967 31.9305 38.3775 32.0631L39.8648 32.5437C40.2753 32.6762 40.5009 33.1166 40.3684 33.5272C40.2619 33.858 39.9552 34.0687 39.6252 34.0687ZM20.425 33.7502C20.2455 33.7502 20.0652 33.6886 19.918 33.563C19.5898 33.2827 19.5511 32.7895 19.8314 32.4616C20.2081 32.0206 20.6391 31.6234 21.1125 31.2809C21.4619 31.0281 21.9505 31.1062 22.2033 31.4559C22.4562 31.8055 22.3778 32.2939 22.0283 32.5467C21.6552 32.8167 21.3156 33.1294 21.0194 33.4762C20.865 33.6572 20.6456 33.7502 20.425 33.7502ZM55.1806 33.1556C55.082 33.1556 54.9819 33.1369 54.885 33.0972C54.6689 33.0087 54.5139 32.8348 54.4428 32.6305C54.2551 32.5655 54.0686 32.4925 53.8837 32.412C53.4883 32.2395 53.3075 31.7792 53.4798 31.3836C53.6522 30.9881 54.1128 30.807 54.5081 30.9797C54.6012 31.0203 54.6945 31.0583 54.7883 31.0939C54.8287 30.9564 54.8666 30.8208 54.9017 30.6878C55.012 30.2706 55.4391 30.0214 55.8567 30.1322C56.2739 30.2425 56.5227 30.67 56.4123 31.0872C56.3661 31.2619 56.3159 31.4403 56.2619 31.6211C56.4212 31.7942 56.5009 32.037 56.4569 32.2867C56.3925 32.6517 56.0842 32.9125 55.7292 32.9312C55.5833 33.0745 55.3856 33.1556 55.1806 33.1556ZM35.1536 32.6528C35.0794 32.6528 35.0041 32.6422 34.9294 32.6198C34.3995 32.4614 33.9137 32.3216 33.4439 32.1923C33.0278 32.078 32.7834 31.648 32.8978 31.2319C33.0122 30.8159 33.442 30.5716 33.8583 30.6858C34.3392 30.8181 34.8359 30.9611 35.377 31.1228C35.7905 31.2466 36.0253 31.6819 35.9017 32.0952C35.8005 32.4339 35.4898 32.6528 35.1536 32.6528ZM58.7317 32.54C58.4483 32.54 58.1748 32.3852 58.0362 32.1156C57.8391 31.7319 57.9903 31.2609 58.3741 31.0637C58.7455 30.873 59.0837 30.6106 59.3797 30.2839C59.6694 29.9642 60.1633 29.9394 60.4833 30.2292C60.8031 30.5189 60.8275 31.013 60.538 31.3328C60.1153 31.7994 59.6277 32.1764 59.0884 32.4536C58.9739 32.5122 58.8519 32.54 58.7317 32.54ZM30.6178 31.4658C30.5689 31.4658 30.5194 31.4611 30.4695 31.4516C29.9759 31.3567 29.477 31.2816 28.9867 31.2281C28.5578 31.1814 28.248 30.7958 28.2947 30.3669C28.3416 29.938 28.7273 29.6287 29.1559 29.6748C29.6883 29.733 30.2294 29.8144 30.7642 29.9172C31.188 29.9986 31.4655 30.4081 31.3841 30.8319C31.3123 31.2058 30.985 31.4658 30.6178 31.4658ZM24.408 31.4387C24.0542 31.4387 23.7337 31.197 23.6486 30.8378C23.5489 30.418 23.8084 29.9969 24.2283 29.8972C24.7486 29.7736 25.3034 29.6837 25.8777 29.63C26.3052 29.5886 26.6881 29.9053 26.7283 30.335C26.7686 30.7645 26.453 31.1455 26.0233 31.1856C25.5214 31.2327 25.0387 31.3106 24.5891 31.4173C24.5284 31.432 24.4677 31.4387 24.408 31.4387ZM51.7078 30.6336C51.4803 30.6336 51.2548 30.5347 51.1003 30.3442C50.6864 29.8333 50.393 29.2995 50.2283 28.7577L50.2142 28.7102C50.0927 28.2962 50.3295 27.862 50.7436 27.7403C51.1576 27.6187 51.5919 27.8559 51.7133 28.2697L51.7234 28.3036C51.8291 28.6514 52.0278 29.0069 52.3142 29.3605C52.5858 29.6958 52.5342 30.1877 52.1991 30.4594C52.0544 30.5766 51.8805 30.6336 51.7078 30.6336ZM61.3559 28.8308C61.2898 28.8308 61.2225 28.8223 61.1556 28.8045C60.7384 28.6941 60.4898 28.2666 60.6002 27.8494C60.7162 27.4106 60.8073 26.9297 60.8708 26.4198C60.9242 25.9917 61.3162 25.6886 61.7425 25.7411C62.1708 25.7944 62.4747 26.1847 62.4214 26.613C62.3492 27.1923 62.2447 27.7428 62.1108 28.2494C62.018 28.5992 61.7019 28.8308 61.3559 28.8308ZM56.0398 28.5808C55.6312 28.5808 55.2877 28.2631 55.2611 27.8497C55.23 27.3664 55.1352 26.952 54.9792 26.6181C54.7969 26.2272 54.9658 25.7622 55.3569 25.5798C55.7477 25.3975 56.2128 25.5664 56.3953 25.9575C56.6336 26.4684 56.7767 27.0714 56.8203 27.7495C56.8481 28.1802 56.5214 28.5516 56.0909 28.5794C56.0737 28.5803 56.0567 28.5808 56.0398 28.5808ZM51.7464 26.423C51.5312 26.423 51.3173 26.3347 51.163 26.1616C50.8758 25.8394 50.9042 25.3456 51.2262 25.0584C51.7276 24.6116 52.3361 24.3109 52.9858 24.1891C53.4103 24.1094 53.818 24.3887 53.8977 24.8128C53.9773 25.2369 53.6981 25.6452 53.2739 25.7247C52.9089 25.7931 52.5509 25.9708 52.2661 26.2248C52.117 26.3577 51.9312 26.423 51.7464 26.423ZM61.7984 24.2664C61.4572 24.2664 61.2625 24.11 61.1448 23.9027C61.037 23.7756 60.9687 23.613 60.9605 23.4336C60.9564 23.3475 60.9519 23.2606 60.9467 23.1728C60.9462 23.1658 60.9458 23.1587 60.9455 23.1517C60.9386 23.0297 60.9361 22.9494 60.9361 22.9008C60.9361 22.3612 61.3411 22.0703 61.722 22.0703C62.4245 22.0703 62.5109 22.7609 62.5434 23.0208C62.558 23.1367 62.5822 23.3484 62.5822 23.465C62.5823 23.9667 62.1839 24.2664 61.7984 24.2664Z" fill="#1A1B25"/>
<path d="M64.7639 7.73438L64.4858 9.67969L63.9967 13.1031L63.3577 17.5781C63.3577 17.5781 63.3577 19.6875 61.2483 19.6875C59.1389 19.6875 59.1389 17.5781 59.1389 17.5781L58.4998 13.1031L58.0108 9.67969L57.7327 7.73438C57.7327 7.73438 57.7327 4.21875 61.2483 4.21875C64.7639 4.21875 64.7639 7.73438 64.7639 7.73438Z" stroke="#1A1B25" stroke-width="1.5625" stroke-miterlimit="10" stroke-linecap="round" stroke-linejoin="round"/>
<path d="M58.4998 13.1031C57.4342 13.95 55.1326 15.4687 52.3233 15.4687C48.4287 15.4687 47.4548 11.575 47.4548 11.575C47.4548 11.575 48.4287 7.67969 52.3233 7.67969C54.7592 7.67969 56.8139 8.82187 58.0108 9.67969L58.4998 13.1031Z" stroke="#1A1B25" stroke-width="1.5625" stroke-miterlimit="10" stroke-linecap="round" stroke-linejoin="round"/>
<path d="M75.0405 11.575C75.0405 11.575 74.0672 15.4687 70.1734 15.4687C67.3641 15.4687 65.0625 13.95 63.9969 13.1031L64.486 9.67969C65.6828 8.82187 67.7377 7.67969 70.1734 7.67969C74.067 7.67969 75.0405 11.575 75.0405 11.575Z" stroke="#1A1B25" stroke-width="1.5625" stroke-miterlimit="10" stroke-linecap="round" stroke-linejoin="round"/>
<path d="M62.6545 4.45031L63.3577 2.8125" stroke="#1A1B25" stroke-width="1.5625" stroke-miterlimit="10" stroke-linecap="round" stroke-linejoin="round"/>
<path d="M59.842 4.45031L59.1389 2.8125" stroke="#1A1B25" stroke-width="1.5625" stroke-miterlimit="10" stroke-linecap="round" stroke-linejoin="round"/>
<path d="M63.5155 16.4736H59.0391" stroke="#1A1B25" stroke-width="1.5625" stroke-miterlimit="10" stroke-linecap="round" stroke-linejoin="round"/>
<path d="M63.9028 13.7607H58.6588" stroke="#1A1B25" stroke-width="1.5625" stroke-miterlimit="10" stroke-linecap="round" stroke-linejoin="round"/>
</svg>
