<svg width="16" height="16" viewBox="0 0 16 16" fill="none" xmlns="http://www.w3.org/2000/svg">
<path d="M5.33335 2V3.33333H4.00002V6C4.00002 7.47273 5.19393 8.66667 6.66669 8.66667C8.13942 8.66667 9.33335 7.47273 9.33335 6V3.33333H8.00002V2H10C10.3682 2 10.6667 2.29848 10.6667 2.66667V6C10.6667 7.9818 9.22542 9.627 7.33389 9.9446L7.33335 11C7.33335 12.2887 8.37802 13.3333 9.66669 13.3333C10.6649 13.3333 11.5167 12.7065 11.85 11.825C11.1522 11.5133 10.6667 10.8134 10.6667 10C10.6667 8.8954 11.5621 8 12.6667 8C13.7713 8 14.6667 8.8954 14.6667 10C14.6667 10.9141 14.0535 11.6849 13.216 11.9236C12.8068 13.5013 11.3728 14.6667 9.66669 14.6667C7.64162 14.6667 6.00002 13.0251 6.00002 11L6.00015 9.94473C4.10827 9.6274 2.66669 7.98207 2.66669 6V2.66667C2.66669 2.29848 2.96517 2 3.33335 2H5.33335ZM12.6667 9.33333C12.2985 9.33333 12 9.6318 12 10C12 10.3682 12.2985 10.6667 12.6667 10.6667C13.0349 10.6667 13.3334 10.3682 13.3334 10C13.3334 9.6318 13.0349 9.33333 12.6667 9.33333Z" fill="#D73E3D"/>
</svg>
