<svg width="24" height="24" viewBox="0 0 24 24" fill="none" xmlns="http://www.w3.org/2000/svg">
<path d="M0 6C0 2.68629 2.68629 0 6 0H18C21.3137 0 24 2.68629 24 6V18C24 21.3137 21.3137 24 18 24H6C2.68629 24 0 21.3137 0 18V6Z" fill="#8A44F4"/>
<path d="M12.4204 6.00098L12.4155 9.91504L13.9146 6.2998L14.6792 6.61621L13.1675 10.2598L15.9722 7.48535L16.5542 8.07324L13.7827 10.8154L17.3872 9.32715L17.7026 10.0928L14.0874 11.5859H17.9995V12.4141H14.0776L17.6997 13.917L17.3823 14.6816L13.7583 13.1768L16.5288 15.9551L15.9429 16.54L13.1851 13.7744L14.6841 17.3809L13.9204 17.6992L12.4097 14.0674L12.4058 18L11.5776 17.999L11.5815 14.085L10.0835 17.7002L9.31982 17.3838L10.8306 13.7383L8.02686 16.5146L7.44385 15.9258L10.2104 13.1865L6.61279 14.6729L6.29639 13.9082L9.91357 12.4141H6.00049V11.5859H9.92334L6.29932 10.082L6.6167 9.31836L10.2378 10.8203L7.46924 8.04492L8.05518 7.45996L10.814 10.2256L9.31494 6.61914L10.0786 6.30176L11.5874 9.93359L11.5933 6L12.4204 6.00098Z" fill="white"/>
</svg>
