<svg width="16" height="16" viewBox="0 0 16 16" fill="none" xmlns="http://www.w3.org/2000/svg">
<path d="M2.66667 7.5557L0 6.00016L8 1.3335L16 6.00016V11.6668H14.6667V6.77796L13.3333 7.5557V12.0077L13.1849 12.1911C11.9638 13.7001 10.0945 14.6668 8 14.6668C5.90545 14.6668 4.03619 13.7001 2.81509 12.1911L2.66667 12.0077V7.5557ZM4 8.3335V11.528C4.97814 12.6362 6.40741 13.3335 8 13.3335C9.5926 13.3335 11.0219 12.6362 12 11.528V8.3335L8 10.6668L4 8.3335ZM2.64618 6.00016L8 9.12323L13.3538 6.00016L8 2.8771L2.64618 6.00016Z" fill="#C33AB8"/>
</svg>
